PathFileType	4	(X/Y/Z)	\\move.snu.ac.kr\motion\Animal\091204_091205_Bird\091205_bird\Project 2\Capture day 2\Session 1\pigeon_016_14markers.trc
DataRate	CameraRate	NumFrames	NumMarkers	Units	OrigDataRate	OrigDataStartFrame	OrigNumFrames
240.0	240.0	10	14	mm	240.0	325	2171
Frame#	Time	20MarkersBird:Head			20MarkersBird:C_back			20MarkersBird:L-back			20MarkersBird:R-back			20MarkersBird:Spine			20MarkersBird:L-shoulder			20MarkersBird:L-elbow			20MarkersBird:L-wrist			20MarkersBird:L-hand			20MarkersBird:L-wing1			20MarkersBird:L-wing10			20MarkersBird:R-shoulder			20MarkersBird:R-elbow			20MarkersBird:R-Wrist			20MarkersBird:R-hand			20MarkersBird:R-wing1			20MarkersBird:R-wing10			20MarkersBird:C_Tail			20MarkersBird:L-Tale			20MarkersBird:R-Tale			
		X1	Y1	Z1	X2	Y2	Z2	X3	Y3	Z3	X4	Y4	Z4	X5	Y5	Z5	X6	Y6	Z6	X7	Y7	Z7	X8	Y8	Z8	X9	Y9	Z9	X10	Y10	Z10	X11	Y11	Z11	X12	Y12	Z12	X13	Y13	Z13	X14	Y14	Z14	X15	Y15	Z15	X16	Y16	Z16	X17	Y17	Z17	X18	Y18	Z18	X19	Y19	Z19	X20	Y20	Z20	

1385	5.767	-612.63959	779.52570	-2768.28516	-625.38593	780.12372	-2709.55322							-630.82147	776.38922	-2655.98999	-638.11896	774.96985	-2738.50171	-661.08398	783.82874	-2704.80371	-679.10291	791.90051	-2745.75562	-696.36224	765.35724	-2749.32227							-598.72644	776.92773	-2734.72876	-594.32544	795.30542	-2700.25488	-565.65033	797.51141	-2735.34302	-545.64966	760.25891	-2734.32104							-635.64673	694.51086	-2559.83643	-712.54755	726.42700	-2605.72656	-544.37335	735.78802	-2588.57031	
1386	5.771	-608.00323	776.10767	-2789.23413	-620.15857	776.82080	-2731.23120							-626.31219	774.10156	-2677.47388	-633.14386	771.86304	-2760.05566	-649.55054	786.57910	-2723.31201	-672.84747	797.19476	-2762.72290	-696.06165	774.26642	-2756.53345							-595.02020	774.57117	-2755.79346	-595.14026	793.99146	-2721.76660	-563.84546	801.89130	-2752.37915	-535.96039	771.40820	-2741.01392							-630.85052	690.81812	-2579.68506	-709.49908	730.52948	-2626.03613	-542.21918	740.52228	-2605.62476	
1387	5.775	-603.49927	772.76971	-2810.27148	-615.55200	774.44293	-2753.02563							-621.84344	771.76263	-2698.85083	-628.36353	768.69647	-2781.33276	-639.06335	784.16266	-2742.46509	-665.52094	800.57794	-2781.01758	-690.21344	784.38263	-2764.96191							-591.84222	771.59369	-2776.79541	-595.33185	793.23889	-2743.97998	-562.26465	805.35950	-2771.70190	-531.53711	784.77502	-2748.50708							-628.05316	688.61407	-2599.89111	-706.28314	733.54700	-2647.34888	-539.57703	744.76990	-2624.01294	
1388	5.779	-598.87402	769.68610	-2831.16626	-610.89752	770.84625	-2773.91162							-617.41388	769.37518	-2720.12891	-623.90930	765.26819	-2802.22021	-624.91693	785.81720	-2761.89697	-657.90991	800.83325	-2799.88281	-682.15948	795.93903	-2777.45679							-588.14331	768.30109	-2797.74609	-595.34521	791.08563	-2763.00122	-560.42059	806.80627	-2790.88306	-531.49951	801.11188	-2759.01465							-626.38513	686.98206	-2619.64453	-703.10730	735.14709	-2669.67944	-535.79620	748.37775	-2644.27637	
1389	5.783	-594.19208	766.62195	-2852.16479	-606.56714	767.53516	-2794.72461							-613.02234	766.94202	-2741.31616	-619.78369	761.75574	-2823.24829	-619.84436	782.53815	-2782.76831	-653.56421	801.43304	-2820.38867	-673.91864	806.79211	-2794.29688							-583.59723	764.66956	-2818.65894	-594.32556	786.99200	-2783.30884	-556.49347	808.09473	-2810.65942	-534.25220	817.14557	-2774.36548							-625.77380	686.47968	-2639.02808	-700.02191	734.57721	-2692.99268	-530.81085	751.13788	-2666.50024	
1390	5.787	-589.54596	763.06592	-2873.06396	-601.90320	763.57452	-2815.29810							-608.66760	764.46594	-2762.42065	-615.70349	758.13293	-2844.33887	-615.91278	779.87708	-2803.94897	-651.78088	800.98254	-2840.81470	-665.93323	815.71503	-2815.16821							-578.29120	760.91205	-2839.87183	-589.82739	783.61536	-2808.91650	-550.62048	809.09814	-2830.20776	-536.80566	830.78522	-2794.87573							-624.96118	687.01056	-2657.44507	-697.24670	732.18445	-2718.03613	-524.65851	752.86536	-2689.69165	
1391	5.792	-585.01312	759.67273	-2893.78955	-597.06732	759.78241	-2835.41235							-604.34851	761.94983	-2783.45020	-611.53033	754.29736	-2865.11133	-613.08173	776.15784	-2828.32666	-651.67468	798.52332	-2860.87891	-661.40930	819.48047	-2839.65625							-572.46008	756.67114	-2860.86694	-582.52539	781.12451	-2832.31641	-542.83502	807.92004	-2849.36987	-534.39197	839.33905	-2820.47754							-625.04584	688.55414	-2676.04126	-694.76233	728.04449	-2743.90503	-518.26678	751.04462	-2713.66943	
1392	5.796	-580.61407	756.35309	-2914.39111	-592.39520	756.38806	-2855.53955							-600.06378	759.39648	-2804.41309	-607.35541	750.65369	-2885.39160	-611.74042	772.08087	-2852.39746	-652.08032	793.51202	-2880.79248	-662.78241	816.82495	-2865.55249							-566.26160	752.24487	-2881.12646	-573.50970	778.86658	-2855.12354	-534.15814	804.10022	-2868.86035	-522.94635	839.77887	-2846.78003							-623.48181	690.00128	-2694.65381	-691.89020	724.53693	-2770.46094	-510.42130	745.89343	-2736.38525	
1393	5.800	-575.97583	753.13049	-2934.87134	-587.83234	753.31732	-2875.45337							-595.81226	756.80859	-2825.31714	-603.07251	747.68341	-2905.63379	-611.71606	767.71808	-2875.21704	-652.63074	785.95251	-2901.34473	-669.22864	809.32678	-2890.48706							-560.63312	748.70178	-2901.06250	-563.88507	776.76398	-2878.47729	-524.13116	797.52899	-2888.36963	-507.43448	833.19592	-2871.80273							-621.34601	690.98047	-2714.15552	-689.21613	723.83032	-2796.56543	-503.70563	739.24390	-2759.76855	
1394	5.804	-571.68158	750.19702	-2955.22021	-583.50189	750.29669	-2895.21606							-591.59271	754.18909	-2846.17041	-598.30322	744.78070	-2925.57227	-614.26392	763.88269	-2897.74316	-653.26208	777.24347	-2923.47729	-676.02863	798.15625	-2915.06934							-556.30499	745.86481	-2921.58643	-554.31433	772.93829	-2897.54517	-514.06232	789.57294	-2909.43164	-491.51724	822.90442	-2897.22827							-617.67993	690.23260	-2733.92456	-684.55579	721.44824	-2819.30029	-497.80460	733.49969	-2782.08765	
